<svg id="Capa_1" data-name="Capa 1" xmlns="http://www.w3.org/2000/svg" viewBox="0 0 136.13 59.43">
    <defs>
        <style>.cls-1{fill:#599de0;}.cls-2{fill:#000;}</style>
        <mask id="text">
            <path fill="white"
                  d="M108,7.32A22.38,22.38,0,0,0,88,19.58a22.41,22.41,0,0,0-39.95,0,22.4,22.4,0,1,0,0,20.29,22.41,22.41,0,0,0,40,0A22.4,22.4,0,1,0,108,7.32Z"/>
            <path class="cls-2"
                  d="M17.38,16.18H28.93c5.29,0,10.69,1.27,10.69,7.57A5.51,5.51,0,0,1,36,29.25v.22c3,1.05,4.86,3.22,4.86,6.49,0,5.62-5.22,7.53-10,7.53H17.38Zm10.1,10.5c1.45,0,3.09-.14,3.09-2s-1.85-1.88-3.3-1.88h-.69v3.91ZM26.58,37h1.13c1.63,0,4,0,4-2.29s-2.53-2.25-4.12-2.25h-1Z"/>
            <path class="cls-2"
                  d="M60.14,33.7l.51.41a10.46,10.46,0,0,0,6.19,2.5c1,0,2.54-.4,2.54-1.63s-1.3-1.34-2.21-1.52l-2-.36c-3.88-.69-7.14-3-7.14-7.25C58,19.36,64,15.74,69.89,15.74a16.24,16.24,0,0,1,8.65,2.39l-2.68,7a10.24,10.24,0,0,0-5.76-2.06c-.87,0-2.14.33-2.14,1.45s1.24,1.16,2,1.34l2.25.51c4.2.94,7.24,3.19,7.24,7.82,0,6.52-5.94,9.75-11.84,9.75A24.58,24.58,0,0,1,57.1,41.42Z"/>
            <polygon class="cls-2"
                     points="99.01 16.18 117.38 16.18 117.38 23.64 109.01 23.64 109.01 26.25 116.65 26.25 116.65 33.35 109.01 33.35 109.01 36.02 117.67 36.02 117.67 43.49 99.01 43.49 99.01 16.18"/>
        </mask>
    </defs>
    <title>BancodeSeguros</title>
    <path class="cls-1" mask="url(#text)"
          d="M108,7.32A22.38,22.38,0,0,0,88,19.58a22.41,22.41,0,0,0-39.95,0,22.4,22.4,0,1,0,0,20.29,22.41,22.41,0,0,0,40,0A22.4,22.4,0,1,0,108,7.32Z"/>
</svg>