<?xml version="1.0" encoding="utf-8"?>
<!-- Generator: Adobe Illustrator 16.0.0, SVG Export Plug-In . SVG Version: 6.00 Build 0)  -->
<!DOCTYPE svg PUBLIC "-//W3C//DTD SVG 1.1//EN" "http://www.w3.org/Graphics/SVG/1.1/DTD/svg11.dtd">
<svg version="1.1" id="Layer_1" xmlns="http://www.w3.org/2000/svg" xmlns:xlink="http://www.w3.org/1999/xlink" x="0px" y="0px"
	 width="314.557px" height="111.124px" viewBox="0 0 314.557 111.124" enable-background="new 0 0 314.557 111.124"
	 xml:space="preserve">
<path fill-rule="evenodd" clip-rule="evenodd" fill="#0032A0" d="M104.175,38.537l0.056,33.705
	c0,11.661-11.634,17.367-23.462,17.367c-12.246,0-22.655-5.706-22.655-17.367V26.264c5.065,0,10.826,1.642,10.826,10.882l0.14,32.48
	c0,6.304,4.759,9.463,12.023,9.463c6.93,0,12.162-3.159,12.162-9.463V26.264C100.752,26.264,104.175,29.45,104.175,38.537
	 M141.776,26.264c-13.555,0-22.851,7.82-22.851,23.88v38.672h10.91V49.795c0-8.279,4.453-13.247,12.887-13.247h3.229
	c9.546,0,11.104-4.94,11.104-10.284H141.776z M188.479,26.264h24.158v8.906v53.646c-6.847,0-10.298-1.962-11.05-8.35
	c0,0-4.814,9.547-18.563,9.547c-16.728,0-26.58-13.262-26.051-32.229c0.557-20.832,14.277-31.52,28.778-31.52H188.479z
	 M200.892,36.297h-12.58c-0.668,0.028-1.364,0.069-2.088,0.069c-9.574,0-16.811,6.583-17.2,21.57
	c-0.445,15.6,6.457,22.043,16.143,22.043c10.771,0,15.726-8.211,15.726-16.866V36.297z M32.201,54.263L18.87,50.589
	c-3.674-1.002-7.042-2.616-7.042-7.125c0-4.648,2.812-6.916,8.795-6.916h11.856c5.288,0,11.495-1.74,11.495-10.284H21.653
	C7.904,26.319,0,33.222,0,43.213c0,9.282,5.928,14.486,16.421,17.256l11.605,3.09c4.815,1.294,6.485,4.313,6.485,7.389
	c0,4.662-2.923,7.515-10.131,7.557L2.087,78.685v10.131h22.628c13.805,0,21.681-7.389,21.681-17.13
	C46.396,61.889,42.555,57.046,32.201,54.263"/>
<path fill-rule="evenodd" clip-rule="evenodd" fill="#00ACC8" d="M256.305,101.313c-6.346,2.198-13.276,4.063-20.818,5.302
	c-0.14,0.042-0.278,0.14-0.278,0.278c0,0.084,0,0.167,0.111,0.251c1.225,1.002,2.783,1.559,4.787,1.781
	c2.421,0.306,5.344,0,8.684-0.891c3.006-0.779,5.816-2.074,9.073-3.618c3.062-1.462,5.983-3.201,8.517-4.969
	c2.532-1.795,4.48-3.548,5.594-5.135c0.084-0.223,0-0.278-0.111-0.334C267.966,96.623,262.706,99.155,256.305,101.313
	 M271.278,90.36c0.056-0.236,0.027-0.376-0.14-0.39c-6.15,2.422-19.594,4.787-27.999,6.012c-7.208,1.058-13.442,1.225-16.922,1.447
	l-1.53,0.084c-0.195,0.083-0.334,0.181-0.334,0.306c-0.028,0.125,0.027,0.223,0.167,0.278c0.584,0.737,2.616,2.672,6.707,3.229
	c4.704,0.696,11.634-0.459,20.373-2.978C258.81,96.33,267.187,92.796,271.278,90.36 M270.332,101.104
	c-5.261,5.121-12.97,7.988-15.559,8.781c-0.167,0-0.223,0.139-0.223,0.265c0,0.125,0.056,0.25,0.111,0.319
	c0.445,0.182,3.591,1.893,9.463-1.071c3.34-1.67,5.065-4.397,6.568-8.016c0.056-0.194-0.056-0.306-0.139-0.361
	C270.443,101.021,270.388,101.076,270.332,101.104 M240.607,25.081c1.559,1.655,3.534,2.88,6.012,3.646l0.139,0.098
	c0.779,0.153,41.665,11.091,52.436,14.083c4.704,1.308,8.489,2.338,10.215,2.839c0.223,0,0.334-0.069,0.334-0.181
	c0-0.042,0-0.167-0.14-0.195c-6.847-2.77-48.956-19.135-64.849-25.313l-6.651-2.602c-0.251-0.07-0.334,0-0.418,0.056
	c-0.083,0.083-0.083,0.194-0.083,0.236c0.083,0.584,0.361,3.618,1.753,5.761C239.772,24.064,240.162,24.621,240.607,25.081
	 M242.444,8.938c0.862,1.043,1.586,1.711,3.062,2.602c0.557,0.278,1.002,0.668,1.586,0.919l3.758,1.948
	c2.143,1.058,33.704,15.947,38.324,18.229c5.428,2.728,10.883,5.344,13.332,6.541c0.194,0.056,0.278-0.028,0.25-0.278
	c-5.872-3.729-28.444-18.091-44.503-28.139l-11.634-7.027l-2.06-1.322l-3.952-2.365c-0.195-0.056-0.307-0.056-0.39-0.028
	c-0.111,0.056-0.14,0.167-0.14,0.251c-0.056,0.543-0.139,3.479,0.779,5.761C241.275,7.06,241.804,8.089,242.444,8.938
	 M314.39,49.726c-5.482-1.002-71.473-13.025-71.473-13.025c-0.167,0-0.278,0.07-0.39,0.195c-0.083,0.083,0,0.236,0,0.361
	c1.058,3.41,3.618,6.875,8.071,8.267c0.501,0.139,0.946,0.194,1.447,0.223c0,0,55.998,3.966,62.261,4.369
	c0.139,0,0.25-0.027,0.25-0.167C314.557,49.879,314.474,49.726,314.39,49.726 M300.529,53.58c-5.816,0-13.025,0-19.732-0.056
	c-8.99-0.014-23.296,0.056-23.296,0.056c-0.083,0-0.167,0.015-0.25,0.126c-0.084,0.069-0.084,0.194,0,0.278
	c0.223,0.612,1.029,2.171,1.948,3.089c1.753,1.893,3.729,2.895,5.733,3.104c0.25,0.014,0.473,0.014,0.724,0.014
	c0.25,0,0.473-0.014,0.751-0.083c0.251-0.015,42.861-5.817,45.228-6.179c0.083-0.028,0.167-0.14,0.167-0.167
	c0-0.167-0.084-0.251-0.167-0.251C309.603,53.58,305.595,53.58,300.529,53.58 M308.378,57.853
	c-2.644,0.752-12.663,3.313-21.542,5.483c-7.709,1.976-16.281,4.313-16.281,4.313c-0.919,0.223-0.557,0.585-0.501,0.696
	c0.194,0.361,0.779,1.113,1.28,2.143c1.392,2.282,3.256,1.977,4.954,1.42c0.306-0.084,30.894-12.72,32.341-13.693
	c0.194-0.084,0.056-0.195,0-0.278C308.629,57.853,308.489,57.853,308.378,57.853 M294.713,79.089
	c-4.063,3.381-10.242,8.684-16.644,14.083c-0.641,0.473-0.891,1.336-1.169,2.505c-0.39,1.809-1.28,4.175-1.28,4.175
	c-0.195,0.501,0.056,0.751,0.557,0.223c4.954-5.274,15.892-17.284,18.842-20.68c0.084-0.223-0.027-0.361-0.139-0.361L294.713,79.089
	z M287.838,74.12c-3.701,2.213-8.321,4.773-10.715,6.234c-0.251,0.182-0.529,0.182-0.362,0.905c0,0,0.111,0.724,0.14,1.53
	c0.278,3.535,1.753,3.173,3.868,1.559l0.251-0.223c7.403-6.025,21.068-17.437,24.047-19.955c0.056-0.237,0-0.349-0.111-0.349
	C302.005,65.563,294.351,70.224,287.838,74.12"/>
</svg>
