<svg id="Capa_1" data-name="Capa 1" xmlns="http://www.w3.org/2000/svg" viewBox="0 0 138.14 51.16"><defs><style>.cls-1{fill:#1e359b;}.cls-2{fill:#60a9c5;}</style></defs><title>Sura</title><path class="cls-1" d="M47,18.49l0,14c0,4.86-4.84,7.23-9.77,7.23-5.09,0-9.43-2.37-9.43-7.23V13.38c2.11,0,4.51.69,4.51,4.53l.06,13.52c0,2.63,2,3.94,5,3.94s5.07-1.31,5.07-3.94v-18c3.11,0,4.54,1.33,4.54,5.11m15.65-5.11c-5.64,0-9.51,3.26-9.51,9.94v16.1h4.54V23.18c0-3.45,1.85-5.52,5.36-5.52h1.35c4,0,4.62-2.05,4.62-4.28Zm19.44,0h10v26c-2.85,0-4.28-.82-4.6-3.48,0,0-2,4-7.72,4-7,0-11.07-5.52-10.85-13.42.24-8.67,6-13.12,12-13.12Zm5.17,4.18H82c-.28,0-.57,0-.87,0-4,0-7,2.74-7.16,9-.18,6.49,2.69,9.17,6.72,9.17,4.48,0,6.55-3.42,6.55-7V17.56ZM17,25l-5.55-1.53c-1.53-.42-2.93-1.09-2.93-3s1.17-2.88,3.66-2.88h4.93c2.21,0,4.79-.72,4.79-4.28H12.62c-5.73,0-9,2.9-9,7.06,0,3.86,2.47,6,6.84,7.18l4.83,1.29c2,.54,2.7,1.79,2.7,3.07,0,1.94-1.22,3.13-4.22,3.15l-9.28.07v4.22h9.42c5.75,0,9-3.08,9-7.13S21.32,26.2,17,25"/><path class="cls-2" d="M110.29,44.62a52.38,52.38,0,0,1-8.66,2.21c-.06,0-.12.06-.12.12a.11.11,0,0,0,0,.1,3.6,3.6,0,0,0,2,.74,9.58,9.58,0,0,0,3.61-.37,20.8,20.8,0,0,0,3.78-1.51,25.81,25.81,0,0,0,3.55-2.06,9.87,9.87,0,0,0,2.32-2.14c0-.09,0-.12,0-.14a27.31,27.31,0,0,1-6.48,3m6.23-4.56c0-.09,0-.15,0-.16-2.56,1-8.16,2-11.66,2.5-3,.44-5.59.51-7,.61l-.64,0c-.08,0-.14.08-.14.13a.09.09,0,0,0,.07.11,4.25,4.25,0,0,0,2.79,1.35c2,.29,4.84-.19,8.48-1.24a39.45,39.45,0,0,0,8.19-3.33m-.39,4.48a17.59,17.59,0,0,1-6.48,3.65c-.07,0-.09.06-.09.11a.19.19,0,0,0,0,.13c.18.08,1.49.79,3.94-.44a5.84,5.84,0,0,0,2.73-3.34.12.12,0,0,0-.06-.15.13.13,0,0,0-.09,0M103.76,12.89a5.65,5.65,0,0,0,2.5,1.52l.06,0c.32.06,17.34,4.62,21.82,5.86,2,.55,3.54,1,4.26,1.18.09,0,.13,0,.13-.07s0-.07-.05-.08c-2.85-1.16-20.38-8-27-10.54l-2.77-1.08a.17.17,0,0,0-.17,0,.16.16,0,0,0,0,.1,6,6,0,0,0,.73,2.4,5.69,5.69,0,0,0,.52.65m.76-6.72a4.25,4.25,0,0,0,1.28,1.08c.23.12.41.28.66.39l1.56.81c.89.44,14,6.64,16,7.59,2.26,1.13,4.53,2.22,5.55,2.72.08,0,.12,0,.11-.12-2.45-1.55-11.84-7.53-18.53-11.71L106.26,4l-.86-.56-1.64-1a.34.34,0,0,0-.17,0,.11.11,0,0,0,0,.1,6,6,0,0,0,.32,2.4,5,5,0,0,0,.66,1.21m30,17-29.75-5.42a.19.19,0,0,0-.16.08s0,.1,0,.15a5.09,5.09,0,0,0,3.36,3.44,2.42,2.42,0,0,0,.6.09s23.31,1.65,25.91,1.82c.06,0,.11,0,.11-.07s0-.09-.07-.09m-5.77,1.6c-2.42,0-5.42,0-8.21,0-3.75,0-9.7,0-9.7,0a.13.13,0,0,0-.11.06.08.08,0,0,0,0,.11,4.28,4.28,0,0,0,.82,1.29,3.79,3.79,0,0,0,2.38,1.29h.3a1.22,1.22,0,0,0,.32,0c.1,0,17.84-2.42,18.82-2.57a.12.12,0,0,0,.07-.07c0-.07,0-.1-.07-.1-.84,0-2.51,0-4.62,0M132,26.53c-1.1.32-5.27,1.38-9,2.28-3.21.83-6.78,1.8-6.78,1.8-.38.09-.23.24-.21.29a10.08,10.08,0,0,1,.54.89,1.52,1.52,0,0,0,2.06.59c.13,0,12.86-5.29,13.46-5.7.08,0,0-.08,0-.11s-.06,0-.1,0m-5.69,8.84c-1.69,1.41-4.27,3.62-6.93,5.86a1.75,1.75,0,0,0-.49,1.05,14.73,14.73,0,0,1-.53,1.73c-.08.21,0,.32.23.1,2.06-2.2,6.62-7.2,7.85-8.61,0-.09,0-.15-.06-.15Zm-2.86-2.07c-1.54.92-3.47,2-4.46,2.6-.11.07-.22.07-.15.38,0,0,0,.3,0,.63.12,1.47.73,1.32,1.61.65l.11-.09c3.08-2.51,8.77-7.26,10-8.31,0-.1,0-.14-.05-.14-1.23.72-4.41,2.66-7.12,4.28"/></svg>