<svg id="Capa_1" data-name="Capa 1" xmlns="http://www.w3.org/2000/svg" viewBox="0 0 135.45 45.78">
    <defs>
        <style>.cls-1{fill:#60a8de;}.cls-1,.cls-2,.cls-3{fill-rule:evenodd;}.cls-2{fill:#fff;}.cls-3{fill:#222221;}
        </style>

        <mask id="logoMask">
            <path fill="white"
                  d="M94.52,3.72h36.17a1.49,1.49,0,0,1,1.49,1.49V40.57a1.49,1.49,0,0,1-1.49,1.49H94.52A1.49,1.49,0,0,1,93,40.57V5.21a1.49,1.49,0,0,1,1.49-1.49Z"/>
            <path class="black"
                  d="M95.2,6.2c1.37-.06,18-.65,27.52,8.74,0,0-7.57-5.68-24.65-3.16A26.34,26.34,0,0,0,95.2,6.2Z"/>
            <path class="black"
                  d="M127.15,21.19c-5.16-5.84-21.87-3-27-1.55a39.89,39.89,0,0,0-1.27-5.55c3.73-.57,25-3.34,28.29,7.1Z"/>
            <path class="black"
                  d="M100.48,22.27c4.06-1.12,26.94-6.92,29.23,4-7.21-4.84-24.44.58-29,2.26,0-1.38,0-2.85-.1-4.42,0-.63-.1-1.25-.16-1.85Z"/>
            <path class="black"
                  d="M100.51,31.58c9.77-4,40.16-11.67,26.85,5.21,2.88-5.33,1.22-6-2.68-5.81-7.45.41-22.82,7-26.6,8.8a22.7,22.7,0,0,0,2.43-8.2Z"/>
        </mask>
    </defs>
    <title>Porto</title>
    <path class="cls-1" mask="url(#logoMask)"
          d="M94.52,3.72h36.17a1.49,1.49,0,0,1,1.49,1.49V40.57a1.49,1.49,0,0,1-1.49,1.49H94.52A1.49,1.49,0,0,1,93,40.57V5.21a1.49,1.49,0,0,1,1.49-1.49Z"/>

    <path class="cls-3"
          d="M4,5.26l8.86.08a4.92,4.92,0,0,1,5,4.92c.14,3-1.45,6.3-6.42,6.46h-3l0,6H4L4,5.26ZM8.37,8.6l0,4.84c.71.05,2.59,0,3.16,0,2.89,0,2.95-4.73.12-4.8Z"/>
    <path class="cls-3"
          d="M27.73,5.14a9.39,9.39,0,0,1,9.54,9.23,9.39,9.39,0,0,1-9.54,9.23,9.4,9.4,0,0,1-9.55-9.23,9.4,9.4,0,0,1,9.55-9.23Zm0,3.46c3.32,0,5.09,2.59,5.09,5.77s-1.69,5.69-5.09,5.77-5.13-2.58-5.13-5.77,1.8-5.77,5.13-5.77Z"/>
    <path class="cls-3"
          d="M77,4.73A9.4,9.4,0,0,1,86.58,14a9.55,9.55,0,0,1-19.09,0A9.39,9.39,0,0,1,77,4.73Zm0,3.46c3.33,0,5.09,2.59,5.09,5.77s-1.68,5.69-5.09,5.77S71.92,17.15,71.92,14s1.81-5.77,5.13-5.77Z"/>
    <path class="cls-3"
          d="M38.39,5.22l8.85.08a4.91,4.91,0,0,1,4.95,4.93,5.23,5.23,0,0,1-2.85,5.26h0l5.74,7.21-5.7,0-4.65-6.38H42.81l0,6.37H38.45L38.39,5.22Zm4.44,3.3v4.87c.71,0,2.59,0,3.16,0,2.89,0,3-4.82.13-4.89Z"/>
    <polygon class="cls-3"
             points="68.21 5.24 68.21 8.99 62.8 8.99 62.8 22.69 58.4 22.69 58.4 8.99 52.94 8.99 52.94 5.24 68.21 5.24"/>
    <path class="cls-3"
          d="M77.66,26.32a7.78,7.78,0,1,1-8,7.78,7.92,7.92,0,0,1,8-7.78Zm0,2.92c2.8,0,4.29,2.18,4.29,4.86S80.55,38.89,77.68,39s-4.32-2.18-4.32-4.86,1.52-4.86,4.32-4.86Z"/>
    <path class="cls-3"
          d="M56.78,26.42l7.78.07a4.33,4.33,0,0,1,4.35,4.33,4.58,4.58,0,0,1-2.51,4.62h0l5,6.33-5,0-4.09-5.6H60.66l0,5.59H56.84l-.06-15.32Zm3.9,2.9v4.27c.63,0,2.28,0,2.78,0,2.54,0,2.61-4.23.12-4.3Z"/>
    <path class="cls-3"
          d="M13.16,30.53l1.42-3s-3.5-2-7-1S2.84,32,5.77,34.06s5.28,1.58,5.09,3.34c-.27,2.52-4.57.88-6.48,0L3.27,40.48a12.17,12.17,0,0,0,4.94,1.41c3.2.3,6.28-1.45,6.39-4.57.19-5.25-7.95-4.11-6.48-7.16.65-1.33,3.13-.56,5,.37Z"/>
    <polygon class="cls-3"
             points="25.88 26.78 25.88 30 19.9 30 19.9 32.34 25.35 32.34 25.35 35.56 19.9 35.56 19.9 38.19 26.33 38.19 26.33 41.41 16.07 41.42 16.07 26.78 25.88 26.78 25.88 26.78"/>
    <path class="cls-3"
          d="M38.87,30.44c-5-2.08-8.22.62-8.54,3.46-.29,2.67,2,5.44,6.76,4.47l0-5.16h3.75l0,6.95c-6.17,3.88-14.29.42-14.09-5.92.27-8.58,9.79-8.86,13.54-6.7l-1.38,2.9Z"/>
    <path class="cls-3"
          d="M45.74,26.46l-3.74,0v9c-.08,4.26,3.39,6.32,6.86,6.31s7-2.1,6.9-6.31v-9l-3.74,0,0,8.83c.06,2.16-1.06,3.16-3.11,3.16s-3.17-1-3.12-3.16l0-8.83Z"/>
</svg>